<svg xmlns="http://www.w3.org/2000/svg" viewBox="0 0 76 76" width="76" height="76">
	<defs>
		<clipPath clipPathUnits="userSpaceOnUse" id="cp1">
			<path d="M-1183 -320L737 -320L737 880L-1183 880Z" />
		</clipPath>
	</defs>
	<style>
		tspan { white-space:pre }
		.shp0 { fill: #ffffff } 
		.shp1 { fill: #385c8e } 
	</style>
	<g id="Sign_ip ui" clip-path="url(#cp1)">
		<path id="Ellipse 42" class="shp0" d="M38 68C21.41 68 8 54.59 8 38C8 21.41 21.41 8 38 8C54.59 8 68 21.41 68 38C68 54.59 54.59 68 38 68Z" />
		<path id="Path 556" class="shp1" d="M44.24 26.04L41.17 26.04C37.73 26.04 35.5 28.32 35.5 31.86L35.5 34.54L32.41 34.54C32.15 34.54 31.93 34.76 31.93 35.03L31.93 38.91C31.93 39.18 32.15 39.4 32.41 39.4L35.5 39.4L35.5 49.21C35.5 49.48 35.71 49.69 35.98 49.69L40 49.69C40.27 49.69 40.49 49.48 40.49 49.21L40.49 39.4L44.09 39.4C44.36 39.4 44.58 39.18 44.58 38.91L44.58 35.03C44.58 34.9 44.53 34.77 44.44 34.68C44.35 34.59 44.22 34.54 44.09 34.54L40.49 34.54L40.49 32.27C40.49 31.17 40.75 30.62 42.17 30.62L44.24 30.62C44.51 30.62 44.72 30.4 44.72 30.14L44.72 26.52C44.72 26.26 44.51 26.04 44.24 26.04Z" />
	</g>
</svg>