<svg xmlns="http://www.w3.org/2000/svg" viewBox="0 0 909 463" width="909" height="463">
	<defs>
		<clipPath clipPathUnits="userSpaceOnUse" id="cp1">
			<path d="M-184 -583L1736 -583L1736 617L-184 617Z" />
		</clipPath>
	</defs>
	<style>
		tspan { white-space:pre }
		.shp0 { fill: #ffffff } 
	</style>
	<g id="Sign_ip ui" clip-path="url(#cp1)">
		<g id="Group 750">
			<g id="Group 746">
				<g id="Group 736" style="opacity: 0.161">
					<g id="Group 732">
						<g id="Group 727">
							<path id="Path 2443" class="shp0" d="M1.09 210.78C24.98 202.2 50.25 197.2 75.64 200.65C97.12 203.58 116.84 213.17 134.26 225.78C153.67 239.82 170.32 257.48 186.25 275.26C202.96 293.91 218.79 313.32 235.15 332.28C267.25 369.46 302.31 405.61 347.36 426.82C369.88 437.43 394.66 443.66 419.35 446.46C442.34 449.07 465.89 447.79 488.08 441.01C536.76 426.13 570.15 382.71 579.42 333.66C584.38 307.49 583.81 280.64 586.5 254.21C589.29 226.87 596.63 200.52 613.14 178.18C641.02 140.45 683.44 118.92 730.08 117.14C778.54 115.3 826.47 132.61 868.51 155.37C882.31 162.85 895.64 171.19 908.56 180.1C908.17 179.83 908.97 177.82 908.56 177.54C834.66 126.54 724.52 83.1 643.71 144.46C623.22 160.01 606.3 181.1 596.84 205.07C587.22 229.45 585.78 256.08 584.3 281.95C582.75 309.09 580.91 336.47 570.53 361.92C561.06 385.1 544.49 405.95 524.23 420.6C485.56 448.57 435.09 449.25 390.27 438.83C365.8 433.14 342.8 423.52 321.6 410.03C300.91 396.85 282.48 380.39 265.36 362.91C230.4 327.2 201.02 286.48 165.89 250.95C149.95 234.82 132.43 219.86 112.09 209.59C92.28 199.59 70.34 195.71 48.28 197.34C32.12 198.53 16.29 202.76 1.09 208.21C0.8 208.32 1.34 210.68 1.09 210.78L1.09 210.78Z" />
						</g>
						<g id="Group 728">
							<path id="Path 2444" class="shp0" d="M3.01 262.82C26.65 245.67 54.07 235.49 83.49 236.53C109.59 237.46 134.57 247.54 156.43 261.35C176.87 274.26 194.93 291.08 213.12 306.9C232.27 323.55 251.38 340.25 271.27 356.01C312.91 389.02 358.75 417.81 410.66 431.21C457.97 443.41 516.67 448.35 555.53 412.76C575.3 394.66 587.39 367.46 589.98 341C592.04 320.03 588.26 298.96 584.25 278.46C578.34 248.32 572.25 217.97 580.63 187.63C587.18 163.95 602.35 143.15 620.76 127.2C652.92 99.32 696.13 89.36 737.82 89.86C783.46 90.41 828.84 102.95 870.2 121.73C882.16 127.16 893.81 133.27 905.13 139.92C904.77 139.71 905.51 137.59 905.13 137.36C865.67 114.16 821.87 97.76 776.59 90.66C734.46 84.05 689.38 86.08 650.53 105.04C631.74 114.21 615.32 127.59 602.27 143.89C585.41 164.96 576.65 190.09 576.17 217.02C575.76 239.77 580.55 262 584.87 284.21C587.51 297.78 589.83 311.43 590.38 325.27C591.01 341.32 587.46 356.99 581.5 371.81C571.95 395.55 554.56 415.35 531.4 426.41C508.98 437.12 483.19 438.81 458.77 436.96C404.09 432.84 353.19 410.83 308.1 380.54C265.99 352.25 229 317.41 190.35 284.76C170.96 268.37 150.95 253.29 127.24 243.69C102.73 233.77 75.89 231.09 50.13 237.4C33.01 241.59 17.2 249.96 3.01 260.26C2.59 260.56 3.4 262.53 3.01 262.82L3.01 262.82Z" />
						</g>
						<g id="Group 729">
							<path id="Path 2445" class="shp0" d="M4.93 314.86C19.02 295.95 37.84 281.78 60.29 274.39C80.44 267.75 102.23 267.24 123.05 270.46C165.97 277.1 201.74 302.9 237.71 325.46C285.16 355.21 333.19 384.56 385.29 405.55C411.71 416.2 439.11 424.19 467.21 428.91C491.37 432.97 516.58 434.5 540.68 429.28C561.48 424.78 580.18 413.93 592.75 396.56C606.22 377.94 611 354.72 609.75 332.09C608.54 310.16 598.87 289.58 589.48 270.11C579.39 249.16 568.63 228.26 564 205.28C554.44 157.95 582.54 113.49 621.88 89.41C656.74 68.07 699.17 61.62 739.42 61.87C794.95 62.22 851.77 75.42 901.7 99.75C901.38 99.59 902.05 97.36 901.7 97.19C863.96 78.8 822.75 67.39 781.15 62.13C739.51 56.87 695.86 57.99 655.75 71.32C617.67 83.98 583.33 110.37 568.59 148.65C561.36 167.46 560.26 188.16 564 207.85C568.35 230.79 579.41 251.84 589.48 272.67C599.32 293.02 608.95 314.23 609.87 337.17C610.97 364.58 598.79 393.21 577.18 410.27C559.95 423.87 537.59 428.8 516.11 429.84C489.76 431.11 463.18 426.51 437.7 420.2C382.01 406.42 330.44 379.11 281.48 349.87C259.07 336.48 237.08 322.41 214.91 308.63C197.22 297.65 179.45 286.05 160.1 278.19C135.04 268.01 107.18 263.61 80.3 267.26C49.82 271.4 23.24 287.73 4.93 312.3C4.51 312.86 5.33 314.32 4.93 314.86L4.93 314.86Z" />
						</g>
						<g id="Group 730">
							<path id="Path 2446" class="shp0" d="M6.85 366.9C35.88 291.88 127.96 284.3 194.43 308.04C241.85 324.97 287.05 348.05 333.25 367.94C385.46 390.41 439.22 411.15 495.49 420.72C535.63 427.55 588.23 430.88 617.78 396.96C631.45 381.27 636.95 360 636.65 339.57C636.32 317.67 626.62 297.81 614.44 280.16C590.89 246.01 556.01 216.42 547.46 174.06C538.7 130.61 566.5 89.28 601.68 66.77C634.64 45.67 674.73 37.21 713.23 34.1C754.73 30.75 796.9 34.01 837.67 42.22C858.27 46.37 878.66 51.98 898.27 59.57C898 59.47 898.57 57.13 898.27 57.01C862.23 43.05 823.68 35.52 785.27 32.09C743.99 28.41 701.6 29.8 661.24 39.75C625.89 48.45 590.87 65.04 568.13 94.37C554.76 111.62 546.31 133.3 545.88 155.21C545.52 173.07 549.76 189.74 557.96 205.61C577.28 243 612.64 269.98 629.31 308.93C640.24 334.43 638.28 363.5 623.32 386.97C612.76 403.55 595.51 413.58 576.81 418.4C554.47 424.17 530.6 422.96 507.94 420.03C480.57 416.5 453.66 409.61 427.38 401.31C373.13 384.17 321.28 360.34 269.47 337.06C247.7 327.27 225.89 317.46 203.6 308.89C188.17 302.95 172.62 297.94 156.24 295.44C121.11 290.08 82.52 293.25 51.29 311.29C30.58 323.25 15.43 342.16 6.85 364.34C6.56 365.09 7.13 366.17 6.85 366.9L6.85 366.9Z" />
						</g>
						<g id="Group 731">
							<path id="Path 2447" class="shp0" d="M8.77 418.95C11.82 399.42 19.32 381.1 32.03 365.86C43.28 352.36 58.14 342.31 74.01 335C102.92 321.67 135.73 317.17 167.32 317.07C193.71 316.99 219.15 322.47 244.49 329.45C279.14 339 313.15 350.85 347.19 362.35C384.19 374.84 421.24 387.29 458.89 397.71C492.39 406.97 526.74 415.02 561.54 416.98C587.09 418.43 615.35 416.55 637.09 401.61C658.03 387.22 667.06 361.42 666.85 336.79C666.57 304.63 646.41 279.51 624.01 258.48C599.42 235.38 571 215.87 550.12 189.07C540.48 176.7 533.12 162.59 530.21 147.09C527 129.99 530.36 111.67 536.91 95.7C548.91 66.47 574.48 45.95 602.24 32.44C634.88 16.55 671.39 9.12 707.28 5.33C744.92 1.36 783.08 1.79 820.7 5.67C845.69 8.25 870.68 12.43 894.84 19.4C894.63 19.34 895.09 16.91 894.84 16.84C862.96 7.64 829.69 3.18 796.63 1.13C758.55 -1.25 720.05 0 682.36 6.08C620.54 16.04 544.98 43.53 530.98 112.78C528.36 125.74 528.02 139.47 530.77 152.44C534.04 167.85 542.16 181.71 551.91 193.9C573.12 220.41 601.75 239.86 626.21 263.11C650.2 285.93 671.03 314.63 665.82 349.51C662.03 374.91 647.56 396.16 623.71 406.35C597.97 417.35 567.82 415.87 540.66 412.51C504.59 408.05 469.21 398.5 434.47 388.1C397.07 376.91 360.18 364.12 323.19 351.69C290.76 340.79 258.21 329.78 224.9 321.83C199.78 315.83 174.95 313.48 149.15 315.11C116.05 317.2 81.8 324.84 53.98 343.65C28.92 360.58 13.42 386.66 8.77 416.39C8.64 417.22 8.9 418.12 8.77 418.95L8.77 418.95Z" />
						</g>
					</g>
					<g id="Group 733">
						<path id="Path 2448" fill-rule="evenodd" class="shp0" d="M154.28 287.9C154.52 289.15 154.64 290.44 154.72 291.72L154.78 293.85L154.7 295.46C154.69 295.94 154.62 296.68 154.55 297.36C154.47 298.03 154.44 298.75 154.31 299.36C154.1 300.63 153.86 301.88 153.51 303.12C152.85 305.59 151.97 308 150.8 310.28C148.51 314.86 145.31 318.92 141.56 322.35C137.33 326.18 132.38 329.16 127.04 331.28C127.75 333.71 128.44 336.12 129.12 338.5C131.43 346.84 133.65 354.87 134.73 362.82C135 364.8 135.2 366.78 135.26 368.76C135.26 369.27 135.31 369.71 135.28 370.28L135.25 371.7C135.17 372.71 135.09 373.75 134.91 374.7C134.28 378.61 132.72 382.25 130.54 385.34C129.41 386.87 128.13 388.25 126.72 389.45C125.3 390.64 123.75 391.61 122.16 392.44L120.94 393L120.63 393.13L120.3 393.27L119.74 393.48C118.91 393.79 118.02 394.06 117.2 394.26C115.52 394.68 113.82 394.9 112.13 394.97C110.44 395.03 108.77 394.92 107.14 394.62C105.5 394.36 103.91 393.9 102.41 393.27C99.38 392.05 96.7 390.09 94.62 387.76C92.57 385.46 91.03 382.7 90.09 380.25C89.57 378.71 89.28 377.48 89.02 376.1C88.78 374.75 88.66 373.42 88.65 372.1C88.54 366.87 90.38 361.65 93.13 357.77C96.56 352.93 100.78 351.05 105.09 350.49C111.12 349.71 116.66 354.08 117.56 360.1C118.45 366.12 114.3 371.73 108.28 372.63C105.88 372.98 103.56 372.53 101.56 371.49C101.16 372.02 100.77 372.67 100.46 373.48C100.23 374.11 100.03 374.81 99.89 375.56C99.73 376.28 99.73 377.2 99.7 377.85L99.74 378.28L99.76 378.49L99.77 378.6C99.77 378.59 99.81 378.78 99.75 378.59L99.79 379.27C99.83 379.71 99.89 380.17 99.99 380.62C100.17 381.53 100.43 382.46 100.87 383.33C101.68 385.12 103.09 386.79 105.04 388.07C106.01 388.69 107.11 389.22 108.31 389.62C109.52 389.97 110.81 390.21 112.16 390.3C113.51 390.39 114.9 390.28 116.3 390.05C117.03 389.92 117.68 389.77 118.38 389.57L118.96 389.4L119.11 389.35C119.07 389.37 119.17 389.33 119.19 389.32L119.45 389.22L120.49 388.83C123.22 387.68 125.74 385.77 127.77 383.25C129.77 380.72 131.25 377.59 131.93 374.15C132.12 373.29 132.21 372.45 132.32 371.58L132.4 370.17C132.42 369.79 132.4 369.27 132.4 368.82C132.39 366.97 132.25 365.08 132.03 363.16C131.59 359.32 130.77 355.41 129.83 351.42C128.86 347.44 127.79 343.36 126.53 339.25C125.84 336.95 125.12 334.61 124.39 332.26C121.01 333.39 117.5 334.2 113.91 334.61C108.74 335.22 103.41 335.05 98.17 334.1L96.2 333.72L94.26 333.25L93.27 333.02L92.26 332.71L90.42 332.15C89.13 331.64 87.7 331.18 86.48 330.55L84.58 329.65L82.75 328.61C77.9 325.73 73.5 321.73 70.27 316.81C68.65 314.37 67.18 311.78 66.09 309.02C65.48 307.66 65.07 306.24 64.57 304.83C64.2 303.4 63.75 301.97 63.48 300.51C62.22 294.67 61.97 288.62 62.53 282.64C63.05 276.65 64.38 270.73 66.38 265.04C68.34 259.34 70.9 253.83 73.98 248.62C75.51 246.02 77.18 243.49 78.93 241.03C80.61 238.64 82.28 236.44 83.94 234.13C86.83 230.13 89.75 226.1 92.57 222.06C90.49 212.73 88.54 203.22 86.88 193.52C84.96 182.49 83.35 171.25 83.01 159.52C82.97 156.59 83.02 153.61 83.34 150.54C83.72 147.47 84.16 144.33 85.92 140.84C86.39 139.97 86.97 139.07 87.8 138.2C88.62 137.34 89.72 136.49 91.09 135.97C91.36 135.85 92.01 135.67 92.27 135.61L92.53 135.56C93 135.47 92.93 135.5 93.16 135.47C93.8 135.38 94.41 135.38 95.01 135.41C96.2 135.49 97.3 135.73 98.27 136.08C100.23 136.76 101.82 137.75 103.25 138.8C104.69 139.86 105.94 141.02 107.09 142.23C111.65 147.09 114.76 152.69 117.16 158.49C119.55 164.31 121.13 170.35 122 176.5L122.3 178.87L122.53 181.02C122.66 182.7 122.77 184.23 122.81 185.86C122.87 189.1 122.71 192.42 122.19 195.7C121.24 202.31 118.9 208.49 116.25 214.11C112.14 222.65 107.18 230.13 101.96 237.25C103.5 244.01 105.08 250.69 106.71 257.25C107.23 257.06 107.77 256.88 108.31 256.73C110.33 256.1 112.46 255.74 114.63 255.52C116.8 255.35 119.03 255.41 121.23 255.69C130.11 256.78 138.5 261.46 144.74 268.44C146.33 270.16 147.73 272.09 149 274.13C150.29 276.15 151.37 278.36 152.27 280.66C153.19 282.95 153.87 285.38 154.28 287.9ZM93.96 143.96C94.02 143.95 94.08 143.93 94.04 143.93C94.07 143.9 94.02 143.92 93.96 143.96ZM97.24 215.16C99.02 212.44 100.71 209.71 102.25 206.98C104.76 202.4 106.79 197.81 107.82 193.07C108.37 190.7 108.66 188.27 108.79 185.76C108.85 184.52 108.84 183.17 108.84 181.98L108.77 179.82L108.66 177.9C108.28 172.61 107.59 167.3 106.25 162.24C104.9 157.21 102.9 152.28 99.97 148.43C98.53 146.55 96.75 144.91 95.25 144.29C94.89 144.12 94.58 144.05 94.34 144C94.23 143.98 94.13 143.97 94.06 143.97C94.11 143.96 93.86 143.99 94.16 143.93L93.95 143.97C93.8 144.07 93.49 144.34 93.18 144.88C92.25 146.45 91.59 149.01 91.21 151.55C90.82 154.12 90.64 156.83 90.57 159.55C90.43 165 90.73 170.55 91.24 176.05C91.75 181.56 92.43 187.05 93.23 192.5C94.38 200.14 95.76 207.7 97.24 215.16ZM93.93 144.03L93.9 144.03C93.87 144.04 93.89 144.03 93.93 144.03ZM122.85 327.39C122.78 327.14 122.7 326.9 122.62 326.66C121.22 322.39 119.79 318.05 118.34 313.63C115.42 304.79 112.43 295.63 109.52 286.16C108.15 281.77 106.82 277.3 105.51 272.77C105.45 272.81 105.39 272.84 105.33 272.88C101.15 275.3 98.03 278.65 95.96 282.27C93.91 285.91 92.85 289.74 92.61 293.17C92.33 296.6 92.84 299.61 93.7 301.91C94.54 304.23 95.77 305.83 96.71 306.8C97.18 307.28 97.61 307.64 97.9 307.86C98.18 308.08 98.33 308.2 98.33 308.2C98.33 308.2 98.15 308.16 97.79 308.1C97.61 308.06 97.38 308.02 97.12 307.97C96.85 307.88 96.55 307.77 96.19 307.65C94.81 307.14 92.71 306.09 90.7 303.79C88.66 301.56 86.79 298.15 85.8 293.79C84.85 289.44 84.76 284.08 86.54 278.38C88.24 272.69 92.09 266.75 97.86 262.21C98.58 261.63 99.35 261.13 100.11 260.59L101.35 259.82C101.52 259.72 101.66 259.63 101.82 259.53C100.36 254.14 98.94 248.67 97.56 243.12C97.34 243.4 97.12 243.69 96.9 243.98C95.16 246.19 93.42 248.4 91.68 250.6C90.04 252.64 88.5 254.75 87.04 256.88C84.11 261.16 81.5 265.6 79.34 270.21C75.08 279.4 72.47 289.35 73.17 299.06C73.21 300.28 73.43 301.46 73.57 302.66C73.82 303.83 73.99 305.04 74.34 306.18C74.93 308.5 75.78 310.74 76.87 312.84C77.94 314.97 79.31 316.9 80.83 318.7C82.33 320.53 84.14 322.1 86.06 323.48C87.97 324.9 90.12 325.96 92.19 326.89L93.99 327.56L94.8 327.86L95.67 328.12L97.41 328.63L99.18 329.04C101.53 329.56 103.9 329.92 106.28 330.01C108.65 330.16 111.02 330.07 113.34 329.8C116.65 329.43 119.85 328.6 122.85 327.39ZM143.09 294.26C143.08 294.15 143.09 294.52 143.06 294.29L143.03 294.13L142.96 293.82L142.83 293.19C142.61 292.37 142.43 291.55 142.13 290.75C141.6 289.15 140.91 287.61 140.1 286.15C138.5 283.24 136.44 280.64 134.17 278.41C129.62 273.96 124.18 271.13 119.15 270.22C116.62 269.81 114.19 269.79 111.89 270.29C111.31 270.37 110.76 270.57 110.2 270.71C110.17 270.72 110.15 270.73 110.12 270.74C111.36 275.52 112.61 280.25 113.86 284.9C117.76 299.34 121.78 313.11 125.57 326.17C129.9 324.01 133.7 321.05 136.59 317.53C142.09 311.03 144.18 302.72 143.28 295.87L143.09 294.26Z" />
					</g>
					<path id="Path 2449" fill-rule="evenodd" class="shp0" d="M557.84 424.96C557.84 424.95 557.72 424.82 557.72 424.81C557.72 424.81 557.79 424.89 557.84 424.94L557.84 424.96ZM557.84 424.94L557.82 424.87L557.88 424.99C557.88 424.99 557.86 424.97 557.84 424.94ZM557.71 424.64L557.64 424.7C560.31 430.41 557.96 437.29 553.08 441.49C548.16 445.72 542.17 445.21 539.72 440.18C537.27 435.14 539.32 427.68 544.24 423.44C546.92 421.14 549.99 420.38 552.55 420.88L531.26 377.38L533.48 375.46L557.71 424.64ZM557.76 424.59L557.82 424.87L557.71 424.64L557.76 424.59ZM555.1 426.84C553.44 423.43 549.17 423.17 545.57 426.27C541.98 429.37 540.4 434.66 542.06 438.07C543.72 441.49 547.99 441.74 551.59 438.64C555.18 435.55 556.76 430.25 555.1 426.84Z" />
					<path id="Path 2450" fill-rule="evenodd" class="shp0" d="M539.38 332.31C537.14 333.18 534.58 333.44 533.22 333.44C532.82 333.44 532.57 333.3 532.57 333.3L531.8 333.12L532.1 332.36C532.14 332.2 532.36 332.06 532.4 331.89L532.41 331.93L539.65 303.73L541.19 303.73L535.43 324.99C536.05 324.31 536.74 323.7 537.58 323.22C538.72 322.57 539.94 322.23 541.13 322.23C543.24 322.23 544.75 323.31 544.97 324.97C545.33 327.62 542.85 330.98 539.38 332.31ZM533.23 333.44L533.22 333.44C533.22 333.44 533.22 333.44 533.22 333.44C533.22 333.44 533.23 333.44 533.23 333.44ZM543.28 325.59C543.14 324.55 542.12 323.88 540.69 323.88C539.85 323.88 538.94 324.13 538.14 324.59C536.22 325.69 534.86 327.84 533.79 331.53C534.9 331.52 537.21 331.4 539.09 330.67C541.65 329.69 543.53 327.41 543.28 325.59Z" />
					<path id="Path 2451" fill-rule="evenodd" class="shp0" d="M484.55 461.56C482.3 462.42 479.74 462.51 478.38 462.51L478.39 462.51C477.98 462.51 477.73 462.53 477.73 462.53L476.97 462.52L477.26 461.73C477.3 461.57 477.52 461.39 477.57 461.22L477.57 461.18L484.81 432.8L486.35 432.8L480.6 454.24C481.22 453.55 481.91 453.11 482.75 452.63C483.88 451.99 485.1 451.65 486.29 451.65C488.4 451.65 489.91 452.72 490.13 454.39C490.49 457.03 488.01 460.22 484.55 461.56ZM488.44 455C488.3 453.97 487.28 453.3 485.86 453.3C485.01 453.3 484.1 453.55 483.31 454C481.38 455.1 480.02 457.26 478.95 460.95C480.06 460.93 482.37 460.81 484.25 460.09C486.81 459.1 488.69 456.82 488.44 455Z" />
					<path id="Path 2452" fill-rule="evenodd" class="shp0" d="M753.41 44.36C751.16 45.22 748.6 45.59 747.25 45.59C746.84 45.59 746.59 45.35 746.59 45.35L745.83 45.06L746.12 44.31C746.16 44.15 746.38 44.04 746.43 43.88L746.43 43.98L753.67 15.89L755.21 15.89L749.46 37.04C750.08 36.35 750.77 35.62 751.61 35.14C752.74 34.5 753.96 34.16 755.15 34.16C757.26 34.16 758.77 35.23 758.99 36.9C759.35 39.54 756.87 43.02 753.41 44.36ZM747.24 45.59C747.24 45.59 747.25 45.59 747.25 45.59C747.25 45.59 747.25 45.59 747.25 45.59L747.24 45.59ZM757.3 37.51C757.16 36.48 756.15 35.81 754.72 35.81C753.87 35.81 752.96 36.06 752.17 36.52C750.24 37.61 748.89 39.77 747.81 43.46C748.92 43.44 751.23 43.32 753.11 42.6C755.67 41.61 757.55 39.33 757.3 37.51Z" />
					<g id="Group 734">
						<path id="Path 2453" fill-rule="evenodd" class="shp0" d="M620.67 146.16C625.06 146.16 627.83 149.13 626.86 152.78C625.9 156.44 621.56 159.4 617.17 159.4C612.79 159.4 610.02 156.44 610.98 152.78C611.95 149.13 616.29 146.16 620.67 146.16ZM613.11 152.78C612.45 155.26 614.53 157.28 617.74 157.28C620.94 157.28 624.08 155.26 624.74 152.78C625.39 150.31 623.31 148.29 620.11 148.29C616.9 148.29 613.76 150.31 613.11 152.78Z" />
					</g>
					<path id="Path 2454" class="shp0" d="M239.45 242.63C232.05 236.62 233.01 228 233.03 227.94L233.09 227.93L230.67 227.93L218.78 273.51C217.22 271.52 214.47 270.18 211.05 270.18C204.75 270.18 198.52 274.4 197.13 279.65C195.74 284.9 199.82 288.7 206.12 288.7C217.4 288.7 220.95 278.87 220.95 278.87L231.49 236.92C232.33 239.23 233.98 241.96 237.75 245.47C245.2 252.42 236.43 259.64 236.43 259.64C243.07 256.79 246.59 248.43 239.45 242.63Z" />
					<path id="Path 2455" class="shp0" d="M321.19 296.06C315.13 294.41 313.31 288.71 313.31 288.67L313.23 288.41L311.77 289.05L316.83 319.92C315.36 319.14 313.4 319.19 311.34 320.1C307.54 321.77 304.94 326.03 305.49 329.56C306.05 333.1 309.54 334.33 313.33 332.66C320.13 329.66 319.67 322.81 319.67 322.81L314.86 294.73C315.99 295.9 317.71 297.11 320.91 298.22C327.26 300.43 323.89 307.12 323.89 307.12C327.13 303.63 327.03 297.66 321.19 296.06Z" />
					<path id="Path 2456" class="shp0" d="M591.19 274.49C590.54 280.74 585.21 283.45 585.17 283.47L584.92 283.58L585.79 284.92L615.44 274.93C614.9 276.5 615.27 278.43 616.5 280.32C618.77 283.79 623.39 285.68 626.79 284.55C630.18 283.43 630.84 279.79 628.57 276.32C624.51 270.1 617.83 271.66 617.83 271.66L590.9 280.95C591.86 279.65 592.78 277.75 593.36 274.41C594.51 267.8 601.66 270.04 601.66 270.04C597.7 267.4 591.82 268.47 591.19 274.49Z" />
					<path id="Path 2457" class="shp0" d="M613.13 15.39C607.07 13.73 605.25 8.04 605.25 8L605.18 7.73L603.72 8.38L608.78 39.25C607.3 38.47 605.35 38.51 603.29 39.42C599.49 41.09 596.88 45.36 597.44 48.89C598 52.42 601.48 53.66 605.28 51.98C612.07 48.98 611.61 42.13 611.61 42.13L606.81 14.05C607.93 15.22 609.66 16.43 612.86 17.55C619.2 19.75 615.83 26.44 615.83 26.44C619.08 22.96 618.97 16.98 613.13 15.39Z" />
					<path id="Path 2458" class="shp0" d="M583.14 334.99C578.21 336.81 574.32 333.9 574.29 333.88L574.24 333.8L573.56 334.95L591.94 353.41C590.55 353.6 589.18 354.55 588.22 356.17C586.45 359.16 586.73 363.31 588.83 365.45C590.93 367.58 593.89 366.71 595.65 363.72C598.82 358.36 595.15 353.92 595.15 353.92L578.19 337.16C579.52 337.41 581.29 337.39 584.01 336.59C589.4 335 590.36 341.19 590.36 341.19C590.87 337.23 587.89 333.22 583.14 334.99Z" />
					<path id="Path 2459" class="shp0" d="M640.49 315.05C634.68 319.67 628.17 317.46 628.13 317.44L628.02 317.36L627.61 319.21L660.39 335.95C658.62 336.8 657.19 338.68 656.61 341.28C655.55 346.08 657.74 351.53 661.5 353.48C665.26 355.41 668.85 352.95 669.91 348.16C671.81 339.58 664.94 335.22 664.94 335.22L634.8 320.15C636.7 319.89 639.06 319.09 642.37 316.82C648.91 312.33 652.93 320.22 652.93 320.22C651.88 314.68 646.11 310.6 640.49 315.05Z" />
					<path id="Path 2460" fill-rule="evenodd" class="shp0" d="M284.53 349.05C287.01 353.22 284.32 358.06 280.01 359.91C280.01 359.91 286.71 354.32 280.95 348.94C278.09 346.28 276.8 344.2 276.12 342.44L273.03 355.35C273.03 355.35 270.96 362.96 261.61 362.96C256.74 362.96 253.58 360.05 254.65 355.98C255.73 351.92 260.55 348.66 265.43 348.66C268.08 348.66 270.2 349.72 271.42 351.26L280.62 316.03L283.5 316.03C283.41 316.54 282.44 322.85 287.94 327.32C292.71 331.19 290.85 336.53 287.06 339.34C289.13 342.82 287.61 346.77 284.53 349.05ZM283.51 315.99L283.56 316.03L283.5 316.03C283.51 316 283.51 315.99 283.51 315.99ZM280.92 322.9L280.19 325.71C280.08 326.92 279.87 332.86 285.01 337.03C285.68 337.57 286.22 338.14 286.65 338.73C288.17 336.66 289.71 333.04 285.93 329.52C283.02 326.8 281.57 324.69 280.92 322.9ZM283.36 339.23C280.48 336.54 279.04 334.44 278.37 332.67L277.61 335.61C277.51 337.15 277.54 342.76 282.44 346.74C283.11 347.28 283.65 347.86 284.09 348.45C285.6 346.37 287.14 342.76 283.36 339.23Z" />
					<path id="Path 2461" fill-rule="evenodd" class="shp0" d="M691.38 61.9C695.88 69.45 691.08 78.22 683.27 81.57C683.27 81.57 695.14 71.43 684.69 61.68C679.47 56.82 676.58 52.99 675.38 49.77L664.08 90.35C664.08 90.35 659.84 103.93 645.56 104.39C636.73 104.67 631.01 99.33 632.95 91.97C634.9 84.6 643.64 78.62 652.48 78.62C657.28 78.62 661.12 80.36 663.32 83.15L679.99 18.96L683.17 18.96L683.08 19.25C683.06 19.33 681.81 31.7 692.19 40.13C700.82 47.13 698.26 56.8 691.38 61.9ZM690.92 60.81C693.67 57.05 696.46 50.5 689.61 44.11C684.34 39.19 681.72 35.36 680.53 32.12L679.21 37.2C679.02 39.39 678.64 50.16 687.95 57.72C689.16 58.7 690.14 59.74 690.92 60.81Z" />
					<path id="Path 2462" fill-rule="evenodd" class="shp0" d="M577.25 216.42C579.62 220.38 577.09 225 572.98 226.76C572.98 226.76 579.23 221.43 573.73 216.3C570.98 213.74 569.46 211.73 568.83 210.04L562.89 231.4C562.89 231.4 560.65 238.55 553.14 238.79C548.5 238.94 545.48 236.15 546.51 232.27C547.53 228.4 552.13 225.29 556.78 225.29C559.31 225.29 561.33 226.28 562.48 227.75L571.26 194.13L572.88 194.13C572.87 194.13 572.22 200.53 577.67 204.96C582.22 208.64 580.87 213.73 577.25 216.42ZM577.01 215.84C578.45 213.86 579.92 210.41 576.32 207.06C573.54 204.47 572.17 202.45 571.54 200.75L570.85 203.42C570.75 204.57 570.55 210.24 575.45 214.22C576.08 214.73 576.6 215.28 577.01 215.84Z" />
					<path id="Path 2463" fill-rule="evenodd" class="shp0" d="M193.41 213.59L191.79 219.74L196.91 219.74L196.64 220.76L191.52 220.76L190.17 225.88L188.12 225.88L189.47 220.76L183.32 220.76L181.43 227.93L179.38 227.93L181.28 220.76L176.15 220.76L176.42 219.74L181.55 219.74L183.17 213.59L178.05 213.59L178.59 211.54L183.71 211.54L184.79 207.44L186.84 207.44L185.76 211.54L191.91 211.54L193.53 205.39L195.58 205.39L193.95 211.54L199.08 211.54L198.54 213.59L193.41 213.59ZM191.36 213.59L185.22 213.59L183.59 219.74L189.74 219.74L191.36 213.59Z" />
					<g id="Group 735">
						<path id="Path 2464" class="shp0" d="M667.34 262.99C665.74 262.24 663.99 262.1 662.39 262.42C662.19 262.46 661.99 262.5 661.79 262.56L661.5 262.64L661.33 262.69L661.2 262.74L660.94 262.83L660.63 262.95C660.42 263.03 660.24 263.12 660.06 263.22C659.31 263.6 658.62 264.09 658.01 264.65C656.79 265.76 655.89 267.1 655.25 268.34C654.62 269.6 654.29 270.81 654.13 271.79C653.97 272.78 653.98 273.56 654.01 274.08C654.02 274.34 654.04 274.54 654.06 274.67C654.07 274.71 654.07 274.74 654.08 274.77C654.08 275.4 654.18 276.02 654.4 276.61C655.23 278.87 657.44 279.63 659.33 278.31C661.22 276.99 662.08 274.09 661.24 271.82C660.45 269.68 658.42 268.88 656.6 269.93C656.67 269.82 656.73 269.71 656.8 269.6C657.37 268.63 658.14 267.68 659.1 266.95C660.05 266.22 661.18 265.75 662.44 265.61C663.68 265.45 664.96 265.63 666.16 266.21C666.76 266.5 667.34 266.88 667.89 267.36C668.43 267.85 668.94 268.41 669.4 269.05C670.33 270.34 671.05 271.94 671.54 273.68C671.79 274.56 671.97 275.45 672.09 276.38C672.22 277.33 672.28 278.24 672.25 279.19C672.22 280.13 672.14 281.07 671.98 282C671.83 282.93 671.6 283.85 671.33 284.74C670.78 286.5 670.04 288.16 669.18 289.62C668.33 291.08 667.39 292.35 666.44 293.43C665.49 294.49 664.54 295.38 663.66 296.07C662.77 296.77 661.96 297.3 661.28 297.69C660.6 298.06 660.05 298.34 659.67 298.5C659.29 298.66 659.08 298.74 659.08 298.74C659.08 298.74 659.29 298.7 659.68 298.62C660.07 298.53 660.65 298.39 661.38 298.12C662.1 297.85 662.98 297.46 663.95 296.87C664.92 296.29 666 295.52 667.09 294.51C668.17 293.48 669.31 292.26 670.34 290.74C670.86 289.99 671.35 289.17 671.81 288.29C672.05 287.86 672.26 287.4 672.48 286.93C672.69 286.46 672.89 285.98 673.07 285.48C673.81 283.5 674.33 281.3 674.48 279.03C674.56 277.91 674.53 276.75 674.43 275.67C674.33 274.56 674.16 273.46 673.91 272.41C673.41 270.29 672.58 268.33 671.48 266.68C670.38 265.02 668.95 263.72 667.34 262.99Z" />
						<path id="Path 2465" class="shp0" d="M676.73 267.7C677.89 266.85 678.39 265.03 677.84 263.65C677.3 262.26 675.92 261.83 674.75 262.68C673.59 263.53 673.09 265.34 673.64 266.73C674.18 268.11 675.56 268.55 676.73 267.7Z" />
						<path id="Path 2466" class="shp0" d="M677.97 270.87C676.81 271.72 676.31 273.53 676.85 274.92C677.4 276.3 678.78 276.74 679.94 275.89C681.1 275.04 681.6 273.22 681.06 271.84C680.51 270.45 679.13 270.02 677.97 270.87Z" />
					</g>
					<path id="Path 2467" class="shp0" d="M215.76 356.53C215.75 356.57 214.42 359.75 211.68 362.65C211.7 362.2 211.66 361.75 211.55 361.32C211.01 359.15 209.04 358.23 207.14 359.27C205.25 360.31 204.15 362.91 204.69 365.08C204.73 365.23 204.77 365.38 204.82 365.51C204.97 366.11 205.23 366.64 205.6 367.04C206.09 367.57 207.49 368.6 209.97 366.83C212.49 365.01 214.35 362.69 215.58 360.78L215.19 381.04L217.13 380.7L217.68 351.82L215.76 356.53Z" />
					<path id="Path 2468" class="shp0" d="M734.56 134.62L734.56 134.54C734.57 134.53 734.57 134.5 734.57 134.49L743.82 98.59L743.82 98.59L744 97.84L715.22 101.23L714.13 105.52L706.92 133.32C705.83 131.93 703.93 131.05 701.54 131.05C697.16 131.05 692.82 134.01 691.86 137.66C690.89 141.32 693.7 144.3 698.08 144.3C702.43 144.3 706.63 141.88 707.78 137.79L708.15 137.79L708.11 137.81L708.11 137.73C708.11 137.73 708.11 137.69 708.12 137.68L716.37 105.27L740.99 102.15L733.69 130.12C732.6 128.73 730.67 127.85 728.29 127.85C723.9 127.85 719.55 130.81 718.59 134.47C717.62 138.12 720.4 141.16 724.79 141.16C729.14 141.16 733.32 138.81 734.46 134.71L734.57 134.71L734.56 134.62Z" />
					<path id="Path 2469" class="shp0" d="M363.22 383.47C359.08 382.19 354.25 383.48 351.93 387.06L351.45 386.91L351.69 386.53L351.68 386.54C351.68 386.54 351.91 386.62 351.91 386.63L334.37 415.1L309.9 410.77L325.15 386.21C325.78 387.86 327.36 389.26 329.63 389.97C333.82 391.27 338.85 389.73 340.86 386.52C342.86 383.32 340.98 379.85 336.79 378.55C332.65 377.27 327.86 378.51 325.53 382.08L325.3 382.01L325.48 381.74L325.47 381.75L325.57 381.69L305.99 413.34L305.99 413.34L305.64 414L334.18 419.28L336.49 415.52L351.65 391.08C352.28 392.72 353.83 394.13 356.11 394.84C360.3 396.14 365.24 394.71 367.25 391.51C369.26 388.3 367.41 384.77 363.22 383.47Z" />
					<path id="Path 2470" fill-rule="evenodd" class="shp0" d="M459.22 411.4L459.22 411.4C459.23 411.4 459.23 411.68 459.23 411.68L459.31 411.38L459.22 411.4ZM459.31 411.38L459.67 411.29C458.28 416.41 453.31 419.15 448.16 419.15C442.94 419.15 439.62 415.76 440.77 411.42C441.92 407.07 447.08 403.55 452.29 403.55C455.13 403.55 457.39 404.59 458.68 406.24L466.11 377.64L436.67 381.53L427.86 415.22C427.86 415.23 427.83 415.29 427.83 415.3C427.83 415.3 427.77 415.4 427.76 415.41L427.82 415.39L427.93 415.39C426.54 420.51 421.56 423.09 416.41 423.09C411.19 423.09 407.85 419.56 409 415.21C410.15 410.86 415.31 407.35 420.52 407.35C423.36 407.36 425.61 408.42 426.91 410.07L435.51 376.99L436.78 372L470.98 368.09L470.68 369.29L470.58 369.29L459.31 411.38ZM459.67 411.29L459.67 411.29L459.67 411.29C459.67 411.29 459.67 411.29 459.67 411.29ZM466.78 375.07L467.33 372.98L437.94 376.67L437.34 378.96L466.78 375.07Z" />
					<path id="Path 2471" fill-rule="evenodd" class="shp0" d="M264 410.95L264.04 411L264.22 411.22L264.04 410.8L264 410.95ZM264.04 410.8L264.07 410.67L264.07 410.67C265.11 413.18 264.02 415.93 261.94 417.53C259.82 419.15 257.5 418.91 256.61 416.8C255.73 414.68 256.72 411.65 258.83 410.03C259.98 409.15 261.22 408.87 262.26 409.13L256.37 395.24L245.66 405.99L252.59 422.38C252.59 422.38 252.62 422.44 252.62 422.45L252.67 422.56L252.76 422.63L252.8 422.59C253.49 424.65 252.55 427.6 250.46 429.21C248.35 430.83 245.82 430.34 244.93 428.22C244.05 426.1 245.04 423.08 247.16 421.46C248.3 420.58 249.55 420.31 250.59 420.58L243.79 404.52L242.76 402.13L255.43 389.95L255.75 390.61L255.71 390.64L264.04 410.8ZM255.84 393.99L255.4 392.97L244.65 403.61L245.12 404.72L255.84 393.99Z" />
					<path id="Path 2472" fill-rule="evenodd" class="shp0" d="M652.69 207.66L652.68 207.76L652.62 208.05L652.93 207.46L652.69 207.66ZM652.93 207.46L652.95 207.45C651.7 210.52 648.9 210.88 646.33 210.32C643.72 209.75 642.41 207.9 643.46 205.86C644.5 203.81 647.46 202.62 650.06 203.19C651.47 203.5 652.49 204.27 652.95 205.23L659.77 191.77L644.66 190.52L636.6 206.38C636.59 206.39 636.57 206.44 636.56 206.45L636.51 206.56L636.51 206.67L636.57 206.68C635.44 208.53 632.57 209.72 630 209.16C627.4 208.59 626.15 206.34 627.19 204.3C628.24 202.25 631.19 201.07 633.79 201.64C635.21 201.95 636.22 202.73 636.68 203.69L644.57 188.13L645.74 185.81L663.22 187.64L662.92 188.31L662.86 188.29L652.93 207.46ZM652.95 207.44L652.95 207.44L652.95 207.45C652.95 207.44 652.95 207.44 652.95 207.44ZM660.39 190.56L660.89 189.57L645.82 188.21L645.28 189.29L660.39 190.56Z" />
					<path id="Path 2473" fill-rule="evenodd" class="shp0" d="M580.36 36.12C581.52 41.79 577.46 48.4 571.45 51.38C568.19 53 565 53.12 562.56 51.96L571.63 95.08L573.1 101.79L536.1 126.3L536.06 125.65L536.07 125.65L524.42 69.68L524.25 69.76C523.11 63.46 526.99 56.79 532.93 53.84C538.94 50.86 544.62 52.58 545.78 58.25C546.95 63.92 543.02 70.93 537.01 73.91C533.75 75.53 530.54 75.64 528.11 74.48L535.92 111.71L567.62 90.41L558.5 46.82C558.53 46.87 558.56 46.93 558.56 46.93L558.9 47.98L558.99 47.94C557.39 40.73 561.57 34.61 567.51 31.66C573.52 28.68 579.2 30.46 580.36 36.12ZM558.47 46.75C558.47 46.75 558.47 46.75 558.47 46.75C558.47 46.75 558.47 46.75 558.47 46.75ZM558.47 46.65L558.5 46.82C558.49 46.78 558.47 46.75 558.47 46.75C558.47 46.74 558.47 46.65 558.47 46.65ZM524.52 69.63L524.36 69.02C524.36 69.02 524.33 68.97 524.33 68.98C524.33 68.99 524.35 69.37 524.36 69.38L524.42 69.68L524.52 69.63ZM524.36 69.02C524.36 69.02 524.36 69.02 524.36 69.02L524.36 69.02ZM536.62 114.99L537.19 117.72L568.93 96.65L568.31 93.67L536.62 114.99Z" />
					<path id="Path 2474" fill-rule="evenodd" class="shp0" d="M429.78 332.99C430.29 335.49 428.5 338.41 425.85 339.73C424.41 340.44 423 340.5 421.92 339.99L425.92 359.01L426.58 361.97L410.25 372.79L410.23 372.5L410.24 372.5L405.09 347.8L405.01 347.84C404.51 345.06 406.21 342.11 408.83 340.81C411.48 339.5 413.98 340.26 414.49 342.76C415 345.26 413.24 348.35 410.59 349.67C409.15 350.38 407.67 350.43 406.59 349.92L409.91 366.35L423.64 356.95L419.11 337.68L419.65 337.76L420.31 338.23L420.35 338.21C419.64 335.03 421.49 332.33 424.11 331.03C426.76 329.71 429.26 330.49 429.78 332.99ZM419.1 337.68C419.1 337.69 419.1 337.64 419.1 337.64L419.11 337.68L419.1 337.68ZM405.13 347.78L405.07 347.51L405.05 347.49C405.05 347.5 405.07 347.67 405.07 347.67L405.09 347.8L405.13 347.78ZM410.48 367.8L410.73 369L424.74 359.7L424.46 358.39L410.48 367.8Z" />
				</g>
			</g>
		</g>
	</g>
</svg>